Genre:Drama | Romance
Language:English  http://www.imdb.com/title/tt1072438/
Source:DVD


Format : MPEG-4
Format profile : Base Media
Codec ID : isom
File size : 1.03 GiB
Duration : 1h 27mn
Overall bit rate : 1 686 Kbps
Movie name : Not.Since.You.2009.DvDRip.H264.Feel-Free


Video
Format settings, CABAC : Yes
Format settings, ReFrames : 4 frames
Format settings, GOP : M=1, N=32
Codec ID : avc1
Codec ID/Info : Advanced Video Coding
Duration : 1h 27mn
Bit rate mode : Variable
Bit rate : 1 500 Kbps
Width : 720 pixels
Height : 304 pixels
Display aspect ratio : 2.35:1
Frame rate mode : Constant
Frame rate : 23.976 fps
Color space : YUV
Chroma subsampling : 4:2:0
Bit depth : 8 bits
Scan type : Progressive
Bits/(Pixel*Frame) : 0.286
Stream size : 947 MiB (90%)

Audio
ID : 2
Format : AAC
Format/Info : Advanced Audio Codec
Format version : Version 4
Format profile : LC
Codec ID : 40
Duration : 1h 27mn
Bit rate mode : Variable
Bit rate : 165 Kbps
Channel(s) : 2 channels
Channel positions : Front: L R
Sampling rate : 48.0 KHz
Stream size : 103 MiB (10%)


Plot:
A romantic drama about a tight-knit group of college friends who graduated from NYU the year of 9/11 and reunite years later for a weekend wedding in Georgia
 
http://rapidhdd.com/images/59764vlcsnap-2010-12-23-00h43m22s58.png 
http://www.rapidhdd.com/images/365969vlcsnap-2010-12-23-00h43m33s0.png 
http://www.rapidhdd.com/images/454870vlcsnap-2010-12-23-00h43m44s0.png 
http://www.rapidhdd.com/images/198480vlcsnap-2010-12-23-00h44m23s156.png